<svg width="272" height="44" viewBox="0 0 272 44" fill="none" xmlns="http://www.w3.org/2000/svg">
<path d="M86.8 30.7H89.2V35.4C87.9 36.4 86.2 36.9 84.5 36.9C80.9 36.9 78.2 34.4 78.2 30.9C78.2 27.4 80.9 24.9 84.6 24.9C86.6 24.9 88.3 25.6 89.4 26.9L87.7 28.5C86.9 27.6 85.9 27.2 84.7 27.2C82.5 27.2 80.9 28.7 80.9 30.9C80.9 33.1 82.4 34.6 84.6 34.6C85.3 34.6 86 34.5 86.7 34.1V30.7H86.8Z" fill="#606061"/>
<path d="M100.2 32.9H93.5C93.7 34 94.7 34.7 96 34.7C96.9 34.7 97.6 34.4 98.2 33.8L99.6 35.3C98.8 36.2 97.5 36.7 95.9 36.7C92.8 36.7 90.8 34.8 90.8 32.1C90.8 29.4 92.8 27.5 95.5 27.5C98.1 27.5 100.1 29.2 100.1 32.1C100.2 32.4 100.2 32.7 100.2 32.9ZM93.4 31.4H97.8C97.6 30.3 96.8 29.6 95.6 29.6C94.4 29.6 93.6 30.3 93.4 31.4Z" fill="#606061"/>
<path d="M111 31.6V36.7H108.4V32C108.4 30.6 107.7 29.9 106.6 29.9C105.4 29.9 104.5 30.7 104.5 32.3V36.7H101.9V27.8H104.4V28.8C105.1 28 106.1 27.6 107.3 27.6C109.4 27.6 111 28.9 111 31.6Z" fill="#606061"/>
<path d="M122.1 32.9H115.4C115.6 34 116.6 34.7 117.9 34.7C118.8 34.7 119.5 34.4 120.1 33.8L121.5 35.3C120.7 36.2 119.4 36.7 117.8 36.7C114.7 36.7 112.7 34.8 112.7 32.1C112.7 29.4 114.7 27.5 117.4 27.5C120 27.5 122 29.2 122 32.1C122.1 32.4 122.1 32.7 122.1 32.9ZM115.3 31.4H119.7C119.5 30.3 118.7 29.6 117.5 29.6C116.3 29.6 115.5 30.3 115.3 31.4Z" fill="#606061"/>
<path d="M129.3 27.6V30C129.1 30 128.9 30 128.7 30C127.3 30 126.3 30.8 126.3 32.5V36.7H123.7V27.8H126.2V29C126.9 28.1 128 27.6 129.3 27.6Z" fill="#606061"/>
<path d="M138.7 31.6V36.7H136.3V35.6C135.8 36.4 134.9 36.8 133.6 36.8C131.5 36.8 130.3 35.6 130.3 34.1C130.3 32.5 131.4 31.4 134.1 31.4H136.1C136.1 30.3 135.4 29.7 134.1 29.7C133.2 29.7 132.2 30 131.5 30.5L130.6 28.7C131.6 28 133 27.6 134.4 27.6C137.1 27.6 138.7 28.9 138.7 31.6ZM136.1 33.8V32.9H134.3C133.1 32.9 132.7 33.3 132.7 33.9C132.7 34.5 133.2 35 134.2 35C135.1 35.1 135.8 34.7 136.1 33.8Z" fill="#606061"/>
<path d="M141 24.4H143.6V36.6H141V24.4Z" fill="#606061"/>
<path d="M150.1 30.9C150.1 27.4 152.8 24.9 156.4 24.9C158.4 24.9 160.1 25.6 161.2 26.9L159.5 28.5C158.7 27.6 157.8 27.1 156.6 27.1C154.4 27.1 152.9 28.6 152.9 30.8C152.9 33 154.4 34.5 156.6 34.5C157.8 34.5 158.7 34 159.5 33.1L161.2 34.7C160.1 36 158.4 36.8 156.4 36.8C152.8 36.9 150.1 34.4 150.1 30.9Z" fill="#606061"/>
<path d="M161.8 32.2C161.8 29.5 163.9 27.6 166.7 27.6C169.5 27.6 171.6 29.5 171.6 32.2C171.6 34.9 169.6 36.8 166.7 36.8C163.8 36.8 161.8 34.9 161.8 32.2ZM168.9 32.2C168.9 30.7 167.9 29.7 166.6 29.7C165.3 29.7 164.3 30.6 164.3 32.2C164.3 33.8 165.3 34.7 166.6 34.7C167.9 34.7 168.9 33.8 168.9 32.2Z" fill="#606061"/>
<path d="M188.2 31.6V36.7H185.6V32C185.6 30.6 185 29.9 183.9 29.9C182.7 29.9 181.9 30.6 181.9 32.2V36.7H179.3V32C179.3 30.6 178.7 29.9 177.6 29.9C176.5 29.9 175.7 30.6 175.7 32.2V36.7H173.1V27.8H175.6V28.8C176.3 28 177.2 27.6 178.4 27.6C179.6 27.6 180.7 28.1 181.3 29.1C182 28.2 183.2 27.6 184.5 27.6C186.7 27.6 188.2 28.9 188.2 31.6Z" fill="#606061"/>
<path d="M205.5 31.6V36.7H203V32C203 30.6 202.4 29.9 201.3 29.9C200.1 29.9 199.3 30.6 199.3 32.2V36.7H196.7V32C196.7 30.6 196.1 29.9 195 29.9C193.9 29.9 193.1 30.6 193.1 32.2V36.7H190.5V27.8H193V28.8C193.7 28 194.6 27.6 195.8 27.6C197 27.6 198.1 28.1 198.7 29.1C199.4 28.2 200.6 27.6 201.9 27.6C204 27.6 205.5 28.9 205.5 31.6Z" fill="#606061"/>
<path d="M207.3 32.2C207.3 29.5 209.4 27.6 212.2 27.6C215 27.6 217.1 29.5 217.1 32.2C217.1 34.9 215.1 36.8 212.2 36.8C209.4 36.8 207.3 34.9 207.3 32.2ZM214.4 32.2C214.4 30.7 213.4 29.7 212.1 29.7C210.8 29.7 209.8 30.6 209.8 32.2C209.8 33.8 210.8 34.7 212.1 34.7C213.5 34.7 214.4 33.8 214.4 32.2Z" fill="#606061"/>
<path d="M227.8 31.6V36.7H225.2V32C225.2 30.6 224.5 29.9 223.4 29.9C222.2 29.9 221.3 30.7 221.3 32.3V36.7H218.7V27.8H221.2V28.8C221.9 28 222.9 27.6 224.1 27.6C226.2 27.6 227.8 28.9 227.8 31.6Z" fill="#606061"/>
<path d="M229.3 35.8001L230.2 34.0001C231 34.5001 232.2 34.9001 233.3 34.9001C234.5 34.9001 234.9 34.6001 234.9 34.1001C234.9 32.6001 229.5 34.1001 229.5 30.6001C229.5 28.9001 231 27.7001 233.6 27.7001C234.8 27.7001 236.2 28.0001 237 28.5001L236.1 30.3001C235.2 29.8001 234.4 29.6001 233.5 29.6001C232.3 29.6001 231.9 30.0001 231.9 30.4001C231.9 31.9001 237.3 30.4001 237.3 33.9001C237.3 35.5001 235.8 36.7001 233.1 36.7001C231.6 36.8001 230.1 36.4001 229.3 35.8001Z" fill="#606061"/>
<path d="M84.9 7.19995H86.8V15.9H84.9L80.8 10.5V15.9H78.9V7.19995H80.7L85 12.8V7.19995H84.9Z" fill="#BB0E3D"/>
<path d="M95.2 15.9L94.4 14H90.8L90 15.9H87.9L91.7 7.19995H93.6L97.4 15.9H95.2ZM92.6 9.79995L91.5 12.3H93.7L92.6 9.79995Z" fill="#BB0E3D"/>
<path d="M101.3 8.79998V15.8H99.4V8.79998H96.9V7.09998H103.8V8.79998H101.3Z" fill="#BB0E3D"/>
<path d="M105.2 7.19995H107.1V15.9H105.2V7.19995Z" fill="#BB0E3D"/>
<path d="M116.6 14.7C115.7 15.6 114.6 16 113.4 16C112.2 16 111 15.6 110.2 14.7C109.3 13.8 108.9 12.8 108.9 11.5C108.9 10.2 109.3 9.2 110.2 8.3C111.1 7.4 112.2 7 113.4 7C114.6 7 115.8 7.4 116.6 8.3C117.5 9.2 117.9 10.2 117.9 11.5C117.9 12.8 117.4 13.8 116.6 14.7ZM115.9 11.5C115.9 10.7 115.7 10.1 115.2 9.5C114.7 9 114.1 8.7 113.4 8.7C112.7 8.7 112.1 9 111.6 9.5C111.1 10 110.9 10.7 110.9 11.5C110.9 12.3 111.1 12.9 111.6 13.5C112.1 14 112.7 14.3 113.4 14.3C114.1 14.3 114.7 14 115.2 13.5C115.7 12.9 115.9 12.2 115.9 11.5Z" fill="#BB0E3D"/>
<path d="M125.6 7.19995H127.5V15.9H125.6L121.5 10.5V15.9H119.6V7.19995H121.4L125.7 12.8V7.19995H125.6Z" fill="#BB0E3D"/>
<path d="M135.9 15.9L135.1 14H131.5L130.7 15.9H128.6L132.4 7.19995H134.3L138.1 15.9H135.9ZM133.3 9.79995L132.2 12.3H134.4L133.3 9.79995Z" fill="#BB0E3D"/>
<path d="M138.9 15.9V7.19995H140.8V14.2H144.5V15.9H138.9Z" fill="#BB0E3D"/>
<path d="M153.3 14.1C154.3 14.1 155 13.7 155.6 13L156.8 14.3C155.8 15.4 154.7 16 153.3 16C152 16 150.9 15.6 150 14.7C149.1 13.9 148.7 12.8 148.7 11.5C148.7 10.2 149.1 9.1 150 8.3C150.9 7.4 152 7 153.2 7C154.6 7 155.8 7.5 156.8 8.6L155.6 10C155 9.2 154.2 8.9 153.3 8.9C152.6 8.9 151.9 9.1 151.4 9.6C150.9 10.1 150.6 10.7 150.6 11.5C150.6 12.3 150.8 13 151.3 13.4C152 13.9 152.6 14.1 153.3 14.1Z" fill="#BB0E3D"/>
<path d="M164.5 15.9L163.7 14H160.1L159.3 15.9H157.2L161 7.19995H162.9L166.7 15.9H164.5ZM161.9 9.79995L160.8 12.3H163L161.9 9.79995Z" fill="#BB0E3D"/>
<path d="M173.7 7.19995H175.6V15.9H173.7L169.6 10.5V15.9H167.7V7.19995H169.5L173.8 12.8V7.19995H173.7Z" fill="#BB0E3D"/>
<path d="M181.7 14.1C182.7 14.1 183.4 13.7 184 13L185.2 14.3C184.2 15.4 183.1 16 181.7 16C180.3 16 179.3 15.6 178.4 14.7C177.5 13.9 177.1 12.8 177.1 11.5C177.1 10.2 177.5 9.1 178.4 8.3C179.3 7.4 180.4 7 181.6 7C183 7 184.2 7.5 185.2 8.6L184 10C183.4 9.2 182.6 8.9 181.7 8.9C181 8.9 180.3 9.1 179.8 9.6C179.3 10.1 179 10.7 179 11.5C179 12.3 179.2 13 179.7 13.4C180.5 13.9 181 14.1 181.7 14.1Z" fill="#BB0E3D"/>
<path d="M193.1 7.19995V8.89995H188.8V10.7H192.7V12.4H188.8V14.2H193.3V15.9H186.9V7.19995H193.1Z" fill="#BB0E3D"/>
<path d="M202 10.1C202 11.5 201.4 12.4 200.3 12.8L202.5 15.9H200.1L198.2 13.1H196.9V15.9H195V7.19995H198.3C199.7 7.19995 200.6 7.39995 201.2 7.89995C201.8 8.39995 202 8.99995 202 10.1ZM199.7 11.1C199.9 10.9 200.1 10.5 200.1 10.1C200.1 9.59995 200 9.29995 199.7 9.09995C199.5 8.89995 199 8.79995 198.4 8.79995H196.9V11.4H198.3C199 11.4 199.5 11.3 199.7 11.1Z" fill="#BB0E3D"/>
<path d="M207.3 7.19995H209.2V15.9H207.3V7.19995Z" fill="#BB0E3D"/>
<path d="M217.5 7.19995H219.4V15.9H217.5L213.4 10.5V15.9H211.5V7.19995H213.3L217.6 12.8V7.19995H217.5Z" fill="#BB0E3D"/>
<path d="M223.6 8.9C223.4 9.1 223.3 9.3 223.3 9.5C223.3 9.7 223.4 10 223.6 10.1C223.8 10.2 224.4 10.4 225.2 10.6C226 10.8 226.7 11.1 227.1 11.5C227.6 11.9 227.8 12.5 227.8 13.3C227.8 14.1 227.5 14.7 226.9 15.2C226.3 15.7 225.5 15.9 224.6 15.9C223.2 15.9 222 15.4 220.9 14.4L222.1 13C223 13.8 223.9 14.2 224.7 14.2C225.1 14.2 225.3 14.1 225.5 14C225.7 13.8 225.8 13.6 225.8 13.4C225.8 13.1 225.7 12.9 225.5 12.8C225.3 12.6 224.9 12.5 224.2 12.3C223.2 12.1 222.4 11.7 222 11.4C221.6 11.1 221.3 10.4 221.3 9.6C221.3 8.8 221.6 8.1 222.2 7.7C222.8 7.3 223.5 7 224.4 7C225 7 225.6 7.1 226.1 7.3C226.7 7.5 227.2 7.8 227.6 8.1L226.6 9.5C225.8 8.9 225.1 8.6 224.3 8.6C224 8.7 223.8 8.7 223.6 8.9Z" fill="#BB0E3D"/>
<path d="M233.1 8.79998V15.8H231.2V8.79998H228.7V7.09998H235.6V8.79998H233.1Z" fill="#BB0E3D"/>
<path d="M237 7.19995H238.9V15.9H237V7.19995Z" fill="#BB0E3D"/>
<path d="M244.7 8.79998V15.8H242.8V8.79998H240.3V7.09998H247.2V8.79998H244.7Z" fill="#BB0E3D"/>
<path d="M250.9 13.6C251.2 14 251.7 14.2 252.2 14.2C252.7 14.2 253.2 14 253.5 13.6C253.8 13.2 254 12.6 254 12V7.19998H255.9V12C255.9 13.3 255.6 14.2 254.9 14.9C254.2 15.6 253.3 15.9 252.2 15.9C251.1 15.9 250.2 15.6 249.5 14.9C248.8 14.2 248.4 13.3 248.4 12V7.09998H250.3V12C250.4 12.7 250.6 13.2 250.9 13.6Z" fill="#BB0E3D"/>
<path d="M261.6 8.79998V15.8H259.7V8.79998H257.2V7.09998H264.1V8.79998H261.6Z" fill="#BB0E3D"/>
<path d="M271.8 7.19995V8.89995H267.5V10.7H271.4V12.4H267.5V14.2H272V15.9H265.6V7.19995H271.8Z" fill="#BB0E3D"/>
<path d="M57.7 3.00005C56.8 1.70005 55.3 0.800049 53.8 0.800049H50.2L62.2 22L50.2 43.2001H53.8C55.5 43.2001 57 42.3 57.7 41L68.2 22.1L57.7 3.00005Z" fill="#BA1F40"/>
<path d="M58.9 21.9L47.2 0.800049H4.7C2 0.800049 0.0999985 2.90005 0.0999985 5.40005V38.7001C0.0999985 41.2001 2.1 43.3 4.7 43.3H47.2L58.9 21.9Z" fill="#606061"/>
<path d="M28.4 12.6001H25.2V31.4001H28.4V12.6001Z" fill="white"/>
<path d="M18.9 12.6001V26.3001L10.2 12.6001H7.2V31.4001H10.2V17.6001L18.9 31.4001H22V12.6001H18.9Z" fill="white"/>
<path d="M43.2 12.6001V20.4001H34.5V12.6001H31.4V31.4001H34.5V23.5001H43.2V31.4001H46.4V12.6001H43.2Z" fill="white"/>
</svg>
